<svg xmlns="http://www.w3.org/2000/svg" width="24" height="24"><g style="display:inline"><path d="M251.54 788.364v.008c-1.683.022-3.498-.014-5.05.073-1.114.067-1.484.075-2.49.634-.513.285-.966.743-1.176 1.178-.466 1.369-1.786 6.676-2.012 9.18-.045 1.476-.209 3.136.738 4.142.737.689 1.204 1.022 2.06 1.326.903.004 1.215.048 1.877-.774.81-1.393 1.698-3.101 2.414-4.122.5-.23.96-.25 1.68-.262.916-.02.258-.035 2.144-.051v-.002c1.5-.007.99.008 3.174.053.721.013 1.181.032 1.68.262.717 1.02 1.605 2.729 2.415 4.122.661.822.974.778 1.877.774.855-.304 1.324-.638 2.061-1.326.947-1.006.782-2.666.736-4.141-.226-2.505-1.544-7.812-2.01-9.181-.21-.435-.663-.893-1.175-1.178-1.007-.559-2.828-.579-3.942-.646-1.59-.089-3.285-.043-5.001-.069z" style="fill:#5f1200;fill-opacity:1;fill-rule:evenodd;stroke:#ff9277;stroke-width:.979;stroke-linecap:butt;stroke-linejoin:miter;stroke-miterlimit:4;stroke-dasharray:none;stroke-opacity:1" transform="translate(-240.24 -784.637)"/></g></svg>