<svg xmlns="http://www.w3.org/2000/svg" width="24" height="24"><g style="display:inline"><path d="M3.446 5.863c-.266.723-.266.875-.278 1.167-1.837 1.367-1.632 2.304-2.115 5.033-.456 3.897-.904 5.06-.46 5.758.56.906 1.951 1.966 3.48 1.15.823-.439 2.264-3.705 2.503-4.114.08.093.808 1.175 2.117 1.136.94-.027 1.713-.784 2.04-1.361h2.502c.706 1.204 1.768 1.362 2.025 1.372.842-.015 1.608-.392 2.167-1.16.96 1.512 1.557 3.681 2.571 4.127 1.405.617 2.525.12 3.4-1.15.445-.645.027-2.17-.401-5.777-.4-2.841-.698-4.236-2.24-5.072-.12-.5-.152-.654-.354-1.109-.166-.35-2.776-.796-3.258.213-.124.305-.161.466-.27.95H7.028c-.183-.764-.179-.694-.24-.945-.278-.63-2.233-.958-3.342-.218Z" style="display:inline;fill:#5f005f;fill-opacity:1;fill-rule:evenodd;stroke:#f7f;stroke-width:.25;stroke-miterlimit:4;stroke-dasharray:none;stroke-opacity:1"/><path d="M4.578 7.833c-.15.021-.28.074-.297.297v1.153l.795.82.796-.82V8.13c-.016-.223-.146-.276-.297-.297H5.07zm0 4.515c-.15-.021-.28-.074-.297-.297v-1.153l.795-.79.796.79v1.153c-.016.223-.146.276-.297.297H5.07z" style="fill:#000;fill-opacity:.18048784;fill-rule:evenodd;stroke:#000;stroke-width:.05045754;stroke-linecap:butt;stroke-linejoin:miter;stroke-miterlimit:4;stroke-dasharray:none;stroke-opacity:1"/><path d="M2.841 9.591c.022-.15.075-.28.298-.297h1.153l.786.812-.786.78H3.139c-.223-.017-.276-.147-.298-.298v-.505Z" style="fill:#000;fill-opacity:.18048784;fill-rule:evenodd;stroke:#000;stroke-width:.05045754;stroke-linecap:butt;stroke-linejoin:miter;stroke-miterlimit:4;stroke-dasharray:none;stroke-opacity:1"/><path d="M7.301 9.591c-.021-.15-.074-.28-.297-.297H5.862l-.786.812.8.795 1.128-.016c.223-.016.276-.146.297-.297v-.505z" style="fill:#000;fill-opacity:.18048784;fill-rule:evenodd;stroke:#000;stroke-width:.05045754;stroke-linecap:butt;stroke-linejoin:miter;stroke-miterlimit:4;stroke-dasharray:none;stroke-opacity:1"/><path fill="none" d="M4.583 7.855c-.15.021-.278.074-.294.294v1.142H3.165c-.141.023-.27.073-.312.312v1.008c.086.253.183.215.276.276h1.16v1.168c.019.111.093.203.263.264h1.049c.17-.06.244-.153.263-.264v-1.168h1.16c.093-.06.19-.023.276-.276V9.603c-.042-.239-.171-.289-.312-.312H5.864V8.149c-.017-.22-.145-.273-.294-.294h-.5Z" style="display:inline;fill:#f4fdfd;fill-opacity:0;fill-rule:evenodd;stroke:#000;stroke-width:.04994259;stroke-linecap:butt;stroke-linejoin:miter;stroke-miterlimit:4;stroke-dasharray:none;stroke-opacity:.182266"/><path d="M6.32 13.48a3.55 3.55 0 0 1-4.224-1.418 3.55 3.55 0 0 1 .487-4.428 3.55 3.55 0 0 1 4.43-.467 3.55 3.55 0 0 1 1.4 4.23m7.095-.029a3.6 3.6 0 0 1 1.46-4.257 3.6 3.6 0 0 1 4.473.499 3.6 3.6 0 0 1 .486 4.474 3.6 3.6 0 0 1-4.261 1.447" style="color:#000;clip-rule:nonzero;display:inline;overflow:visible;visibility:visible;opacity:1;isolation:auto;mix-blend-mode:normal;color-interpolation:sRGB;color-interpolation-filters:linearRGB;solid-color:#000;solid-opacity:1;vector-effect:none;fill:#000;fill-opacity:.1372549;fill-rule:evenodd;stroke:#f7f;stroke-width:.1;stroke-linecap:butt;stroke-linejoin:miter;stroke-miterlimit:4;stroke-dasharray:none;stroke-dashoffset:0;stroke-opacity:1;marker:none;color-rendering:auto;image-rendering:auto;shape-rendering:auto;text-rendering:auto"/><circle cx="8.592" cy="13.654" r="2.279" style="color:#000;clip-rule:nonzero;display:inline;overflow:visible;visibility:visible;opacity:1;isolation:auto;mix-blend-mode:normal;color-interpolation:sRGB;color-interpolation-filters:linearRGB;solid-color:#000;solid-opacity:1;vector-effect:none;fill:#000;fill-opacity:.1372549;fill-rule:evenodd;stroke:#f7f;stroke-width:.09026699;stroke-linecap:butt;stroke-linejoin:miter;stroke-miterlimit:4;stroke-dasharray:none;stroke-dashoffset:0;stroke-opacity:1;marker:none;color-rendering:auto;image-rendering:auto;shape-rendering:auto;text-rendering:auto"/><circle cx="15.389" cy="13.654" r="2.288" style="color:#000;clip-rule:nonzero;display:inline;overflow:visible;visibility:visible;opacity:1;isolation:auto;mix-blend-mode:normal;color-interpolation:sRGB;color-interpolation-filters:linearRGB;solid-color:#000;solid-opacity:1;vector-effect:none;fill:#000;fill-opacity:.1372549;fill-rule:evenodd;stroke:#f7f;stroke-width:.09026699;stroke-linecap:butt;stroke-linejoin:miter;stroke-miterlimit:4;stroke-dasharray:none;stroke-dashoffset:0;stroke-opacity:1;marker:none;color-rendering:auto;image-rendering:auto;shape-rendering:auto;text-rendering:auto"/><g style="display:inline"><path d="M432.93 718.948a35.702 35.255 0 0 1-35.702 35.255 35.702 35.255 0 0 1-35.701-35.255 35.702 35.255 0 0 1 35.701-35.255 35.702 35.255 0 0 1 35.702 35.255z" style="color:#000;display:inline;overflow:visible;visibility:visible;opacity:1;fill:#260026;fill-opacity:.70661157;fill-rule:evenodd;stroke:#f7f;stroke-width:1.24009871;stroke-linecap:butt;stroke-linejoin:miter;stroke-miterlimit:4;stroke-dasharray:none;stroke-dashoffset:0;stroke-opacity:1;marker:none" transform="translate(-9.49 -18.994)scale(.04548)"/></g><g style="display:inline"><path d="M432.93 718.948a35.702 35.255 0 0 1-35.702 35.255 35.702 35.255 0 0 1-35.701-35.255 35.702 35.255 0 0 1 35.701-35.255 35.702 35.255 0 0 1 35.702 35.255z" style="color:#000;display:inline;overflow:visible;visibility:visible;opacity:1;fill:#260026;fill-opacity:.6901961;fill-rule:evenodd;stroke:#f7f;stroke-width:1.24009871;stroke-linecap:butt;stroke-linejoin:miter;stroke-miterlimit:4;stroke-dasharray:none;stroke-dashoffset:0;stroke-opacity:1;marker:none" transform="rotate(180 17.03 23.773)scale(.04712)"/></g><path d="M7.33 9.597c-.022-.15-.075-.28-.298-.297H5.879l-.82.796.82.795h1.153c.223-.016.276-.146.297-.297v-.505zm-4.517 0c.022-.15.075-.28.298-.297h1.153l.79.796-.79.795H3.111c-.223-.016-.276-.146-.298-.297v-.505zM5.57 7.86c.151.022.281.075.298.298V9.31l-.812.786-.78-.786V8.158c.017-.223.147-.276.298-.298h.505z" style="fill:#000;fill-opacity:.18048784;fill-rule:evenodd;stroke:#000;stroke-width:.05045754;stroke-linecap:butt;stroke-linejoin:miter;stroke-miterlimit:4;stroke-dasharray:none;stroke-opacity:1"/><path d="M5.57 12.32c.151-.02.281-.074.298-.297v-1.142l-.812-.786-.795.8.016 1.128c.016.223.146.276.297.298h.505z" style="fill:#000;fill-opacity:.18048784;fill-rule:evenodd;stroke:#000;stroke-width:.05045754;stroke-linecap:butt;stroke-linejoin:miter;stroke-miterlimit:4;stroke-dasharray:none;stroke-opacity:1"/><path d="M4.644 7.782c-.15.022-.28.075-.297.298v1.04l.666.717h.134l.68-.717V8.08c-.017-.223-.147-.276-.298-.298H5.08zm0 4.736c-.15-.022-.28-.075-.297-.298v-1.04l.666-.717h.134l.68.717v1.041c-.017.223-.147.276-.298.298H5.08zm2.812-2.805c-.022-.151-.075-.281-.298-.298H6.117l-.717.667v.134l.717.68h1.041c.223-.017.276-.147.298-.298v-.449zm-4.736 0c.022-.151.075-.281.298-.298H4.06l.716.667v.134l-.716.68H3.018c-.223-.017-.276-.147-.297-.298v-.449z" style="fill:#260026;fill-opacity:1;fill-rule:evenodd;stroke:#f7f;stroke-width:.13;stroke-linecap:butt;stroke-linejoin:miter;stroke-miterlimit:4;stroke-dasharray:none;stroke-opacity:1"/><path fill="none" d="M7.307 9.602c-.021-.149-.074-.278-.294-.294H5.87V8.184c-.023-.141-.073-.27-.312-.312H4.55c-.253.086-.215.183-.276.277v1.159H3.106c-.11.019-.202.093-.263.263v1.049c.06.17.153.244.263.263h1.169v1.16c.06.093.023.19.276.276H5.56c.239-.042.289-.171.312-.312v-1.124h1.142c.22-.016.273-.145.294-.294v-.5z" style="display:inline;fill:#f4fdfd;fill-opacity:0;fill-rule:evenodd;stroke:#000;stroke-width:.04994259;stroke-linecap:butt;stroke-linejoin:miter;stroke-miterlimit:4;stroke-dasharray:none;stroke-opacity:.182266"/><circle cx="16.893" cy="10.15" r=".838" style="color:#000;display:inline;overflow:visible;visibility:visible;opacity:1;fill:#260026;fill-opacity:1;fill-rule:evenodd;stroke:#f7f;stroke-width:.13;stroke-linecap:butt;stroke-linejoin:miter;stroke-miterlimit:4;stroke-dasharray:none;stroke-dashoffset:0;stroke-opacity:1;marker:none"/><circle cx="20.893" cy="10.15" r=".838" style="color:#000;display:inline;overflow:visible;visibility:visible;opacity:1;fill:#260026;fill-opacity:1;fill-rule:evenodd;stroke:#f7f;stroke-width:.13;stroke-linecap:butt;stroke-linejoin:miter;stroke-miterlimit:4;stroke-dasharray:none;stroke-dashoffset:0;stroke-opacity:1;marker:none"/><circle cx="18.893" cy="8.15" r=".838" style="color:#000;display:inline;overflow:visible;visibility:visible;opacity:1;fill:#260026;fill-opacity:1;fill-rule:evenodd;stroke:#f7f;stroke-width:.13;stroke-linecap:butt;stroke-linejoin:miter;stroke-miterlimit:4;stroke-dasharray:none;stroke-dashoffset:0;stroke-opacity:1;marker:none"/><circle cx="18.893" cy="12.15" r=".838" style="color:#000;display:inline;overflow:visible;visibility:visible;opacity:1;fill:#260026;fill-opacity:1;fill-rule:evenodd;stroke:#f7f;stroke-width:.13;stroke-linecap:butt;stroke-linejoin:miter;stroke-miterlimit:4;stroke-dasharray:none;stroke-dashoffset:0;stroke-opacity:1;marker:none"/></g></svg>