<svg xmlns="http://www.w3.org/2000/svg" width="24" height="24"><g style="display:inline" transform="translate(.076)"><path d="M.165 4.567c.021-.151.074-.281.297-.298h23.22v15.462H.462c-.223-.017-.276-.146-.297-.297V5.003z" style="display:inline;fill:#004b5f;fill-opacity:1;fill-rule:evenodd;stroke:#77e3ff;stroke-width:.13;stroke-linecap:butt;stroke-linejoin:miter;stroke-miterlimit:4;stroke-dasharray:none;stroke-opacity:1"/><rect width="20.1" height="14.949" x="1.05" y="4.525" ry=".275" style="color:#000;clip-rule:nonzero;display:inline;overflow:visible;visibility:visible;opacity:1;isolation:auto;mix-blend-mode:normal;color-interpolation:sRGB;color-interpolation-filters:linearRGB;solid-color:#000;solid-opacity:1;vector-effect:none;fill:#001e26;fill-opacity:1;fill-rule:nonzero;stroke:#77e3ff;stroke-width:.05;stroke-linecap:butt;stroke-linejoin:miter;stroke-miterlimit:4;stroke-dasharray:none;stroke-dashoffset:0;stroke-opacity:1;marker:none;color-rendering:auto;image-rendering:auto;shape-rendering:auto;text-rendering:auto"/><g transform="translate(.486 .959)"><circle cx="21.927" cy="6.6" r=".775" style="color:#000;display:inline;overflow:visible;visibility:visible;opacity:1;vector-effect:none;fill:#001e26;fill-opacity:1;fill-rule:evenodd;stroke:#77e3ff;stroke-width:.1;stroke-linecap:butt;stroke-linejoin:miter;stroke-miterlimit:4;stroke-dasharray:none;stroke-dashoffset:0;stroke-opacity:1;marker:none"/><circle cx="21.927" cy="11.041" r=".775" style="color:#000;display:inline;overflow:visible;visibility:visible;opacity:1;vector-effect:none;fill:#001e26;fill-opacity:1;fill-rule:evenodd;stroke:#77e3ff;stroke-width:.1;stroke-linecap:butt;stroke-linejoin:miter;stroke-miterlimit:4;stroke-dasharray:none;stroke-dashoffset:0;stroke-opacity:1;marker:none"/><circle cx="21.927" cy="15.483" r=".775" style="color:#000;display:inline;overflow:visible;visibility:visible;opacity:1;vector-effect:none;fill:#001e26;fill-opacity:1;fill-rule:evenodd;stroke:#77e3ff;stroke-width:.1;stroke-linecap:butt;stroke-linejoin:miter;stroke-miterlimit:4;stroke-dasharray:none;stroke-dashoffset:0;stroke-opacity:1;marker:none"/></g><rect width=".425" height="3.683" x=".415" y="10.159" ry=".113" style="color:#000;clip-rule:nonzero;display:inline;overflow:visible;visibility:visible;opacity:1;isolation:auto;mix-blend-mode:normal;color-interpolation:sRGB;color-interpolation-filters:linearRGB;solid-color:#000;solid-opacity:1;vector-effect:none;fill:#001e26;fill-opacity:1;fill-rule:nonzero;stroke:#77e3ff;stroke-width:.01;stroke-linecap:butt;stroke-linejoin:miter;stroke-miterlimit:4;stroke-dasharray:none;stroke-dashoffset:0;stroke-opacity:1;marker:none;color-rendering:auto;image-rendering:auto;shape-rendering:auto;text-rendering:auto"/></g><g style="display:inline;opacity:1"><path fill="none" d="M5.547 7.691c-.178.48-.178.581-.186.775-1.225.908-1.088 1.53-1.41 3.344-.304 2.588-.603 3.36-.306 3.825.373.601 1.3 1.306 2.32.764.548-.292 1.509-2.462 1.668-2.733.053.061.539.78 1.411.755.628-.019 1.143-.522 1.36-.905h1.669c.47.8 1.178.905 1.35.912.561-.01 1.072-.26 1.445-.77.64 1.003 1.037 2.444 1.714 2.74.936.41 1.683.08 2.267-.763.296-.429.017-1.442-.268-3.838-.266-1.887-.465-2.814-1.493-3.37-.08-.331-.101-.434-.237-.736-.11-.232-1.85-.528-2.172.142-.082.202-.107.309-.18.63H7.935c-.122-.507-.12-.46-.16-.627-.186-.419-1.49-.636-2.228-.145Z" style="display:inline;fill:#004b5f;fill-opacity:0;fill-rule:evenodd;stroke:#77e3ff;stroke-width:.15;stroke-miterlimit:4;stroke-dasharray:none;stroke-opacity:1;opacity:1"/><path d="M6.301 9c-.1.014-.187.049-.198.197v.766l.53.545.53-.545v-.766c-.01-.148-.097-.183-.197-.198h-.337zm0 3c-.1-.015-.187-.05-.198-.198v-.766l.53-.526.53.526v.766c-.01.148-.097.183-.197.197h-.337z" style="fill:#000;fill-opacity:.18048784;fill-rule:evenodd;stroke:#000;stroke-width:.05045754;stroke-linecap:butt;stroke-linejoin:miter;stroke-miterlimit:4;stroke-dasharray:none;stroke-opacity:1"/><path d="M5.143 10.168c.015-.1.05-.187.199-.198h.768l.524.54-.524.517h-.768c-.15-.01-.184-.097-.199-.197v-.335z" style="fill:#000;fill-opacity:.18048784;fill-rule:evenodd;stroke:#000;stroke-width:.05045754;stroke-linecap:butt;stroke-linejoin:miter;stroke-miterlimit:4;stroke-dasharray:none;stroke-opacity:1"/><path d="M8.117 10.168c-.014-.1-.05-.187-.198-.198h-.762l-.524.54.533.528.753-.01c.148-.012.184-.098.198-.198v-.335z" style="fill:#000;fill-opacity:.18048784;fill-rule:evenodd;stroke:#000;stroke-width:.05045754;stroke-linecap:butt;stroke-linejoin:miter;stroke-miterlimit:4;stroke-dasharray:none;stroke-opacity:1"/><path fill="none" d="M6.305 9.014c-.1.014-.186.05-.197.196v.758H5.36c-.094.016-.18.049-.208.208v.669c.057.168.122.143.184.184h.773v.776c.013.073.062.134.176.174h.699c.113-.04.163-.1.175-.174v-.776h.773c.063-.04.128-.016.185-.184v-.67c-.028-.158-.114-.191-.208-.207h-.75V9.21c-.01-.147-.096-.182-.196-.196H6.63z" style="display:inline;fill:#fbfdf4;fill-opacity:0;fill-rule:evenodd;stroke:#000;stroke-width:.04994259;stroke-linecap:butt;stroke-linejoin:miter;stroke-miterlimit:4;stroke-dasharray:none;stroke-opacity:.182266"/><g style="display:inline;stroke-width:1.50264442"><path d="M432.93 718.948a35.702 35.255 0 0 1-35.702 35.255 35.702 35.255 0 0 1-35.701-35.255 35.702 35.255 0 0 1 35.701-35.255 35.702 35.255 0 0 1 35.702 35.255z" style="color:#000;display:inline;overflow:visible;visibility:visible;opacity:1;fill:#001e26;fill-opacity:.7066116;fill-rule:evenodd;stroke:#77e3ff;stroke-width:1.86342752;stroke-linecap:butt;stroke-linejoin:miter;stroke-miterlimit:4;stroke-dasharray:none;stroke-dashoffset:0;stroke-opacity:1;marker:none" transform="matrix(.03032 0 0 .03021 -3.078 -8.821)"/></g><g style="display:inline;stroke-width:1.50264442"><path d="M432.93 718.948a35.702 35.255 0 0 1-35.702 35.255 35.702 35.255 0 0 1-35.701-35.255 35.702 35.255 0 0 1 35.701-35.255 35.702 35.255 0 0 1 35.702 35.255z" style="color:#000;display:inline;overflow:visible;visibility:visible;opacity:1;fill:#001e26;fill-opacity:.69019608;fill-rule:evenodd;stroke:#77e3ff;stroke-width:1.86342752;stroke-linecap:butt;stroke-linejoin:miter;stroke-miterlimit:4;stroke-dasharray:none;stroke-dashoffset:0;stroke-opacity:1;marker:none" transform="matrix(-.03142 0 0 -.0313 25.958 35.38)"/></g><path d="M8.135 10.172c-.014-.1-.05-.187-.198-.198h-.769l-.546.529.546.528h.77c.148-.01.183-.097.197-.197v-.335zm-3.01 0c.014-.1.05-.187.198-.198h.769l.527.529-.527.528h-.769c-.149-.01-.184-.097-.198-.197v-.335z" style="fill:#000;fill-opacity:.18048784;fill-rule:evenodd;stroke:#000;stroke-width:.05045754;stroke-linecap:butt;stroke-linejoin:miter;stroke-miterlimit:4;stroke-dasharray:none;stroke-opacity:1"/><path d="M6.963 9.018c.1.014.187.05.198.198v.766l-.54.521-.52-.521v-.766c.01-.149.097-.184.197-.198h.337z" style="fill:#000;fill-opacity:.18048784;fill-rule:evenodd;stroke:#000;stroke-width:.05045754;stroke-linecap:butt;stroke-linejoin:miter;stroke-miterlimit:4;stroke-dasharray:none;stroke-opacity:1"/><path d="M6.963 11.98c.1-.013.187-.049.198-.197v-.759l-.54-.522-.531.531.01.75c.011.148.098.184.198.198h.337z" style="fill:#000;fill-opacity:.18048784;fill-rule:evenodd;stroke:#000;stroke-width:.05045754;stroke-linecap:butt;stroke-linejoin:miter;stroke-miterlimit:4;stroke-dasharray:none;stroke-opacity:1"/><g style="stroke-width:1.50264442"><path d="M4.644 7.782c-.15.022-.28.075-.297.298v1.04l.666.717h.134l.68-.717V8.08c-.017-.223-.147-.276-.298-.298H5.08zm0 4.736c-.15-.022-.28-.075-.297-.298v-1.04l.666-.717h.134l.68.717v1.041c-.017.223-.147.276-.298.298H5.08zm2.812-2.805c-.022-.151-.075-.281-.298-.298H6.117l-.717.667v.134l.717.68h1.041c.223-.017.276-.147.298-.298v-.449zm-4.736 0c.022-.151.075-.281.298-.298H4.06l.716.667v.134l-.716.68H3.018c-.223-.017-.276-.147-.297-.298v-.449z" style="fill:#001e26;fill-opacity:1;fill-rule:evenodd;stroke:#77e3ff;stroke-width:.19534378;stroke-linecap:butt;stroke-linejoin:miter;stroke-miterlimit:4;stroke-dasharray:none;stroke-opacity:1" transform="matrix(.6667 0 0 .66429 3.249 3.796)"/></g><path fill="none" d="M8.12 10.175c-.014-.1-.049-.185-.196-.195h-.76v-.747c-.016-.094-.05-.18-.209-.207h-.672c-.168.057-.143.121-.184.183v.77H5.32c-.074.013-.135.062-.175.175v.697c.04.113.101.162.175.175h.78v.77c.04.062.016.127.184.184h.672c.16-.028.193-.114.208-.208v-.746h.761c.147-.011.182-.096.197-.196v-.33z" style="display:inline;fill:#fbfdf4;fill-opacity:0;fill-rule:evenodd;stroke:#000;stroke-width:.04994259;stroke-linecap:butt;stroke-linejoin:miter;stroke-miterlimit:4;stroke-dasharray:none;stroke-opacity:.182266"/><ellipse cx="14.512" cy="10.539" rx=".559" ry=".557" style="color:#000;display:inline;overflow:visible;visibility:visible;opacity:1;fill:#001e26;fill-opacity:1;fill-rule:evenodd;stroke:#77e3ff;stroke-width:.13;stroke-linecap:butt;stroke-linejoin:miter;stroke-miterlimit:4;stroke-dasharray:none;stroke-dashoffset:0;stroke-opacity:1;marker:none"/><ellipse cx="17.179" cy="10.539" rx=".559" ry=".557" style="color:#000;display:inline;overflow:visible;visibility:visible;opacity:1;fill:#001e26;fill-opacity:1;fill-rule:evenodd;stroke:#77e3ff;stroke-width:.13;stroke-linecap:butt;stroke-linejoin:miter;stroke-miterlimit:4;stroke-dasharray:none;stroke-dashoffset:0;stroke-opacity:1;marker:none"/><ellipse cx="15.845" cy="9.21" rx=".559" ry=".557" style="color:#000;display:inline;overflow:visible;visibility:visible;opacity:1;fill:#001e26;fill-opacity:1;fill-rule:evenodd;stroke:#77e3ff;stroke-width:.13;stroke-linecap:butt;stroke-linejoin:miter;stroke-miterlimit:4;stroke-dasharray:none;stroke-dashoffset:0;stroke-opacity:1;marker:none"/><ellipse cx="15.845" cy="11.867" rx=".559" ry=".557" style="color:#000;display:inline;overflow:visible;visibility:visible;opacity:1;fill:#001e26;fill-opacity:1;fill-rule:evenodd;stroke:#77e3ff;stroke-width:.13;stroke-linecap:butt;stroke-linejoin:miter;stroke-miterlimit:4;stroke-dasharray:none;stroke-dashoffset:0;stroke-opacity:1;marker:none"/><ellipse cx="11.25" cy="12.726" rx=".472" ry=".47" style="color:#000;display:inline;overflow:visible;visibility:visible;opacity:1;fill:#001e26;fill-opacity:1;fill-rule:evenodd;stroke:#77e3ff;stroke-width:.08446476;stroke-linecap:butt;stroke-linejoin:miter;stroke-miterlimit:4;stroke-dasharray:none;stroke-dashoffset:0;stroke-opacity:1;marker:none"/></g></svg>