<svg xmlns="http://www.w3.org/2000/svg" xmlns:ns3="http://www.w3.org/1999/xlink" width="24" height="24"><defs><radialGradient ns3:href="#a" id="b" cx="64" cy="64" r="36" fx="64" fy="54.988" gradientTransform="matrix(.14701 0 0 .26832 9.596 -.766)" gradientUnits="userSpaceOnUse"/><linearGradient id="a"><stop offset="0" style="stop-color:#06f;stop-opacity:1"/><stop offset="1" style="stop-color:#06f;stop-opacity:0"/></linearGradient><filter id="c"><feGaussianBlur stdDeviation="1.347"/></filter></defs><g style="display:inline" transform="translate(-240.24 -784.637)"><path d="M11.271 3.756v.008c-1.719.022-3.572-.015-5.158.074-1.138.068-1.516.077-2.545.648-.523.29-.986.759-1.2 1.203C1.891 7.088.542 12.51.311 15.07c-.046 1.506-.213 3.202.754 4.23.753.704 1.23 1.045 2.104 1.355.923.004 1.242.049 1.918-.79.827-1.424 1.735-3.17 2.467-4.212.51-.234.98-.254 1.716-.267.935-.02.263-.036 2.19-.053v-.002c1.532-.008 1.01.009 3.242.055.737.013 1.207.033 1.717.267.732 1.043 1.64 2.788 2.467 4.211.675.84.995.795 1.918.791.873-.31 1.352-.651 2.105-1.355.968-1.028.799-2.724.752-4.23-.23-2.56-1.577-7.981-2.053-9.38-.214-.444-.677-.912-1.2-1.203-1.03-.57-2.89-.591-4.028-.66-1.624-.09-3.356-.044-5.11-.07z" style="fill:#004b5f;fill-opacity:1;fill-rule:evenodd;stroke:#77e3ff;stroke-width:.69999999;stroke-linecap:butt;stroke-linejoin:miter;stroke-miterlimit:4;stroke-dasharray:none;stroke-opacity:1" transform="translate(240.24 784.637)"/><circle cx="258.446" cy="793.472" r="3.057" style="color:#000;display:inline;overflow:visible;visibility:visible;opacity:1;fill:#001f28;fill-opacity:1;fill-rule:evenodd;stroke:#77e3ff;stroke-width:.5;stroke-linecap:butt;stroke-linejoin:miter;stroke-miterlimit:4;stroke-dasharray:none;stroke-dashoffset:0;stroke-opacity:1;marker:none;enable-background:accumulate"/><path d="M252.219 791.52a.95.95 0 0 0-.883.595h-.494a.415.415 0 1 0 0 .83h.553a.95.95 0 0 0 .824.48.95.95 0 0 0 .861-.55h.559a.415.415 0 1 0 0-.83h-.568a.95.95 0 0 0-.852-.526z" style="color:#000;display:inline;overflow:visible;visibility:visible;opacity:1;fill:#001e26;fill-opacity:1;fill-rule:evenodd;stroke:#77e3ff;stroke-width:.1;stroke-linecap:butt;stroke-linejoin:miter;stroke-miterlimit:4;stroke-dasharray:none;stroke-dashoffset:0;stroke-opacity:1;marker:none;enable-background:accumulate"/><g style="fill:#001f28;fill-opacity:1;stroke:#77e3ff;stroke-width:9.41730118;stroke-miterlimit:4;stroke-dasharray:none;stroke-opacity:1" transform="translate(228.913 758.983)scale(.0531)"><circle cx="325.744" cy="649.583" r="57.573" style="color:#000;display:inline;overflow:visible;visibility:visible;opacity:1;fill:#001f28;fill-opacity:1;fill-rule:evenodd;stroke:#77e3ff;stroke-width:9.41730118;stroke-linecap:butt;stroke-linejoin:miter;stroke-miterlimit:4;stroke-dasharray:none;stroke-dashoffset:0;stroke-opacity:1;marker:none;enable-background:accumulate"/><path d="M325.744 600.833a10.157 10.157 0 0 0-10.178 10.178v28.394h-28.393a10.156 10.156 0 0 0-10.179 10.178c0 5.639 4.54 10.178 10.18 10.178h28.392v28.394c0 5.639 4.54 10.178 10.178 10.178a10.156 10.156 0 0 0 10.18-10.178v-28.394h28.392c5.639 0 10.178-4.54 10.178-10.178 0-5.64-4.54-10.178-10.178-10.178h-28.393v-28.394c0-5.638-4.54-10.178-10.179-10.178z" style="color:#000;display:inline;overflow:visible;visibility:visible;opacity:1;fill:#001f28;fill-opacity:1;fill-rule:evenodd;stroke:#004658;stroke-width:5.65038061;stroke-linecap:butt;stroke-linejoin:miter;stroke-miterlimit:4;stroke-dasharray:none;stroke-dashoffset:0;stroke-opacity:1;marker:none;enable-background:accumulate"/></g><path d="M261.278 789.411c-.136-.485-.26-1.316-1.94-1.558-.696-.097-1.656-.264-2.554-.192-.334.04-.46.452-.546.642 1.632.104 3.837.087 5.04 1.108zm-18.08 0c.135-.485.26-1.316 1.939-1.558.697-.097 1.656-.264 2.555-.192.333.04.459.452.545.642-1.632.104-3.837.087-5.04 1.108z" style="fill:#00495c;fill-opacity:1;fill-rule:evenodd;stroke:#77e3ff;stroke-width:.74563211;stroke-linecap:butt;stroke-linejoin:miter;stroke-miterlimit:4;stroke-dasharray:none;stroke-opacity:1"/><circle cx="253.807" cy="795.713" r=".838" style="color:#000;display:inline;overflow:visible;visibility:visible;opacity:1;fill:#001e26;fill-opacity:1;fill-rule:evenodd;stroke:#77e3ff;stroke-width:.12986854;stroke-linecap:butt;stroke-linejoin:miter;stroke-miterlimit:4;stroke-dasharray:none;stroke-dashoffset:0;stroke-opacity:1;marker:none;enable-background:accumulate"/><circle cx="252.345" cy="797.085" r=".838" style="color:#000;display:inline;overflow:visible;visibility:visible;opacity:1;fill:#001e26;fill-opacity:1;fill-rule:evenodd;stroke:#77e3ff;stroke-width:.12986854;stroke-linecap:butt;stroke-linejoin:miter;stroke-miterlimit:4;stroke-dasharray:none;stroke-dashoffset:0;stroke-opacity:1;marker:none;enable-background:accumulate"/><circle cx="253.807" cy="798.569" r=".838" style="color:#000;display:inline;overflow:visible;visibility:visible;opacity:1;fill:#001e26;fill-opacity:1;fill-rule:evenodd;stroke:#77e3ff;stroke-width:.12986854;stroke-linecap:butt;stroke-linejoin:miter;stroke-miterlimit:4;stroke-dasharray:none;stroke-dashoffset:0;stroke-opacity:1;marker:none;enable-background:accumulate"/><circle cx="255.296" cy="797.085" r=".838" style="color:#000;display:inline;overflow:visible;visibility:visible;opacity:1;fill:#001e26;fill-opacity:1;fill-rule:evenodd;stroke:#77e3ff;stroke-width:.12986854;stroke-linecap:butt;stroke-linejoin:miter;stroke-miterlimit:4;stroke-dasharray:none;stroke-dashoffset:0;stroke-opacity:1;marker:none;enable-background:accumulate"/></g><path d="M22.349 16.407c0 5.07-1.498 5.915-3.344 5.915s-3.344-.845-3.344-5.915 1.498-5.915 3.344-5.915 3.344.845 3.344 5.915" style="fill:#003059;fill-opacity:1;stroke:#fff;stroke-width:.1;stroke-linecap:round;stroke-linejoin:round;stroke-miterlimit:4;stroke-opacity:1;stroke-dasharray:none"/><path d="M22.014 16.407c0 4.708-1.348 5.493-3.01 5.493-1.66 0-3.009-.785-3.009-5.493s1.349-5.492 3.01-5.492 3.01.784 3.01 5.492" style="fill:url(#b);fill-opacity:1;stroke:none;stroke-width:2;stroke-linecap:round;stroke-linejoin:round;stroke-miterlimit:4;stroke-opacity:1"/><path d="M-2.75-31.125V.781l-5 4-15-12v8l10 8-10 8v8l15-12 5 4v32l24-19.968-24-20 24-19.97Zm4 10.281 12 9.625-12 9.625zm0 40 12 9.625-12 9.625z" style="fill:#fff;fill-opacity:1;fill-rule:evenodd;stroke:none;stroke-width:10.64227104px;stroke-linecap:butt;stroke-linejoin:miter;stroke-opacity:1;filter:url(#c)" transform="matrix(.0836 0 0 .10562 18.9 15.47)"/><path d="M18.67 12.182v3.37l-.418.423L17 14.707v.845l.836.845-.836.845v.845l1.253-1.267.418.422v3.38l2.007-2.109L18.67 16.4l2.007-2.109zm.335 1.086 1.003 1.017-1.003 1.016zm0 4.225 1.003 1.017-1.003 1.016z" style="fill:#fff;fill-opacity:1;fill-rule:evenodd;stroke:none;stroke-width:1px;stroke-linecap:butt;stroke-linejoin:miter;stroke-opacity:1"/></svg>